<?xml version="1.0" encoding="UTF-8" standalone="no"?>

<svg
   width="500"
   height="500"
   viewBox="0 0 132.29167 132.29167"
   version="1.1"
   xmlns="http://www.w3.org/2000/svg"
   xmlns:svg="http://www.w3.org/2000/svg">
  <defs id="colors">
    <linearGradient id="menuIconEnabled" fallback="Label.foreground">
      <stop offset="0" stop-color="#303030"/>
      <stop offset="1" stop-color="#303030"/>
    </linearGradient>
  </defs>
  <style>
    stop {
      stop-color: #202020;
    }
    @media (prefers-color-scheme: dark) {
      stop { stop-color: #D0D0D0; }
    }
    body.dark-theme stop {
      stop-color: #D0D0D0;
    }
  </style>
  <g
     id="layer1">
    <g
       id="g1"
       transform="translate(0.02723084,0.00797502)">
      <path
         d="m 173.35067,330.1201 q -3.45052,0 -5.92447,-2.40885 -2.40885,-2.47395 -2.40885,-5.92446 0,-3.41796 2.40885,-5.89191 2.47395,-2.4414 5.92447,-2.4414 3.41796,0 5.89191,2.4414 2.4414,2.47395 2.4414,5.89191 0,3.45051 -2.4414,5.92446 -2.47395,2.40885 -5.89191,2.40885 z m 0,-16.66662 q -3.45052,0 -5.92447,-2.40885 -2.40885,-2.47395 -2.40885,-5.92446 0,-3.41796 2.40885,-5.89192 2.47395,-2.4414 5.92447,-2.4414 3.41796,0 5.89191,2.4414 2.4414,2.47396 2.4414,5.89192 0,3.45051 -2.4414,5.92446 -2.47395,2.40885 -5.89191,2.40885 z m 0,-16.66663 q -3.45052,0 -5.92447,-2.40884 -2.40885,-2.47396 -2.40885,-5.92447 0,-3.41796 2.40885,-5.89191 2.47395,-2.4414 5.92447,-2.4414 3.41796,0 5.89191,2.4414 2.4414,2.47395 2.4414,5.89191 0,3.45051 -2.4414,5.92447 -2.47395,2.40884 -5.89191,2.40884 z m 0,-16.66662 q -3.45052,0 -5.92447,-2.40885 -2.40885,-2.47395 -2.40885,-5.92446 0,-3.41796 2.40885,-5.89191 2.47395,-2.4414 5.92447,-2.4414 3.41796,0 5.89191,2.4414 2.4414,2.47395 2.4414,5.89191 0,3.45051 -2.4414,5.92446 -2.47395,2.40885 -5.89191,2.40885 z m 0,-16.66662 q -3.45052,0 -5.92447,-2.40885 -2.40885,-2.47395 -2.40885,-5.92447 0,-3.41796 2.40885,-5.89191 2.47395,-2.4414 5.92447,-2.4414 3.41796,0 5.89191,2.4414 2.4414,2.47395 2.4414,5.89191 0,3.45052 -2.4414,5.92447 -2.47395,2.40885 -5.89191,2.40885 z m 0,-16.66663 q -3.45052,0 -5.92447,-2.40885 -2.40885,-2.47395 -2.40885,-5.92446 0,-3.41796 2.40885,-5.89191 2.47395,-2.4414 5.92447,-2.4414 3.41796,0 5.89191,2.4414 2.4414,2.47395 2.4414,5.89191 0,3.45051 -2.4414,5.92446 -2.47395,2.40885 -5.89191,2.40885 z m -33.33325,-16.66662 q -3.45052,0 -5.92447,-2.40885 -2.40885,-2.47395 -2.40885,-5.92446 0,-3.41796 2.40885,-5.89192 2.47395,-2.4414 5.92447,-2.4414 3.41796,0 5.89191,2.4414 2.4414,2.47396 2.4414,5.89192 0,3.45051 -2.4414,5.92446 -2.47395,2.40885 -5.89191,2.40885 z m 16.66662,0 q -3.45051,0 -5.92446,-2.40885 -2.40885,-2.47395 -2.40885,-5.92446 0,-3.41796 2.40885,-5.89192 2.47395,-2.4414 5.92446,-2.4414 3.41796,0 5.89191,2.4414 2.4414,2.47396 2.4414,5.89192 0,3.45051 -2.4414,5.92446 -2.47395,2.40885 -5.89191,2.40885 z m 16.66663,0 q -3.45052,0 -5.92447,-2.40885 -2.40885,-2.47395 -2.40885,-5.92446 0,-3.41796 2.40885,-5.89192 2.47395,-2.4414 5.92447,-2.4414 3.41796,0 5.89191,2.4414 2.4414,2.47396 2.4414,5.89192 0,3.45051 -2.4414,5.92446 -2.47395,2.40885 -5.89191,2.40885 z m 16.66662,0 q -3.45051,0 -5.92446,-2.40885 -2.40885,-2.47395 -2.40885,-5.92446 0,-3.41796 2.40885,-5.89192 2.47395,-2.4414 5.92446,-2.4414 3.41796,0 5.89191,2.4414 2.4414,2.47396 2.4414,5.89192 0,3.45051 -2.4414,5.92446 -2.47395,2.40885 -5.89191,2.40885 z m 16.66662,0 q -3.45051,0 -5.92446,-2.40885 -2.40885,-2.47395 -2.40885,-5.92446 0,-3.41796 2.40885,-5.89192 2.47395,-2.4414 5.92446,-2.4414 3.41796,0 5.89192,2.4414 2.4414,2.47396 2.4414,5.89192 0,3.45051 -2.4414,5.92446 -2.47396,2.40885 -5.89192,2.40885 z m 49.99987,99.99974 q -3.45051,0 -5.92446,-2.40885 -2.40885,-2.47395 -2.40885,-5.92446 0,-3.41796 2.40885,-5.89191 2.47395,-2.4414 5.92446,-2.4414 3.41796,0 5.89191,2.4414 2.4414,2.47395 2.4414,5.89191 0,3.45051 -2.4414,5.92446 -2.47395,2.40885 -5.89191,2.40885 z m 16.66663,0 q -3.45052,0 -5.92447,-2.40885 -2.40885,-2.47395 -2.40885,-5.92446 0,-3.41796 2.40885,-5.89191 2.47395,-2.4414 5.92447,-2.4414 3.41796,0 5.89191,2.4414 2.4414,2.47395 2.4414,5.89191 0,3.45051 -2.4414,5.92446 -2.47395,2.40885 -5.89191,2.40885 z m 16.66662,0 q -3.45051,0 -5.92446,-2.40885 -2.40885,-2.47395 -2.40885,-5.92446 0,-3.41796 2.40885,-5.89191 2.47395,-2.4414 5.92446,-2.4414 3.41796,0 5.89191,2.4414 2.4414,2.47395 2.4414,5.89191 0,3.45051 -2.4414,5.92446 -2.47395,2.40885 -5.89191,2.40885 z m 16.66662,0 q -3.45051,0 -5.92446,-2.40885 -2.40885,-2.47395 -2.40885,-5.92446 0,-3.41796 2.40885,-5.89191 2.47395,-2.4414 5.92446,-2.4414 3.41796,0 5.89192,2.4414 2.4414,2.47395 2.4414,5.89191 0,3.45051 -2.4414,5.92446 -2.47396,2.40885 -5.89192,2.40885 z m -66.66649,-16.66662 q -3.45051,0 -5.92447,-2.40885 -2.40884,-2.47395 -2.40884,-5.92446 0,-3.41796 2.40884,-5.89192 2.47396,-2.4414 5.92447,-2.4414 3.41796,0 5.89191,2.4414 2.4414,2.47396 2.4414,5.89192 0,3.45051 -2.4414,5.92446 -2.47395,2.40885 -5.89191,2.40885 z m 66.66649,0 q -3.45051,0 -5.92446,-2.40885 -2.40885,-2.47395 -2.40885,-5.92446 0,-3.41796 2.40885,-5.89192 2.47395,-2.4414 5.92446,-2.4414 3.41796,0 5.89192,2.4414 2.4414,2.47396 2.4414,5.89192 0,3.45051 -2.4414,5.92446 -2.47396,2.40885 -5.89192,2.40885 z m -49.99987,-16.66663 q -3.45051,0 -5.92446,-2.40884 -2.40885,-2.47396 -2.40885,-5.92447 0,-3.41796 2.40885,-5.89191 2.47395,-2.4414 5.92446,-2.4414 3.41796,0 5.89191,2.4414 2.4414,2.47395 2.4414,5.89191 0,3.45051 -2.4414,5.92447 -2.47395,2.40884 -5.89191,2.40884 z m 16.66663,0 q -3.45052,0 -5.92447,-2.40884 -2.40885,-2.47396 -2.40885,-5.92447 0,-3.41796 2.40885,-5.89191 2.47395,-2.4414 5.92447,-2.4414 3.41796,0 5.89191,2.4414 2.4414,2.47395 2.4414,5.89191 0,3.45051 -2.4414,5.92447 -2.47395,2.40884 -5.89191,2.40884 z m 16.66662,0 q -3.45051,0 -5.92446,-2.40884 -2.40885,-2.47396 -2.40885,-5.92447 0,-3.41796 2.40885,-5.89191 2.47395,-2.4414 5.92446,-2.4414 3.41796,0 5.89191,2.4414 2.4414,2.47395 2.4414,5.89191 0,3.45051 -2.4414,5.92447 -2.47395,2.40884 -5.89191,2.40884 z m 16.66662,0 q -3.45051,0 -5.92446,-2.40884 -2.40885,-2.47396 -2.40885,-5.92447 0,-3.41796 2.40885,-5.89191 2.47395,-2.4414 5.92446,-2.4414 3.41796,0 5.89192,2.4414 2.4414,2.47395 2.4414,5.89191 0,3.45051 -2.4414,5.92447 -2.47396,2.40884 -5.89192,2.40884 z m 0,-16.66662 q -3.45051,0 -5.92446,-2.40885 -2.40885,-2.47395 -2.40885,-5.92446 0,-3.41796 2.40885,-5.89191 2.47395,-2.4414 5.92446,-2.4414 3.41796,0 5.89192,2.4414 2.4414,2.47395 2.4414,5.89191 0,3.45051 -2.4414,5.92446 -2.47396,2.40885 -5.89192,2.40885 z m -49.99987,-16.66662 q -3.45051,0 -5.92446,-2.40885 -2.40885,-2.47395 -2.40885,-5.92447 0,-3.41796 2.40885,-5.89191 2.47395,-2.4414 5.92446,-2.4414 3.41796,0 5.89191,2.4414 2.4414,2.47395 2.4414,5.89191 0,3.45052 -2.4414,5.92447 -2.47395,2.40885 -5.89191,2.40885 z m 16.66663,0 q -3.45052,0 -5.92447,-2.40885 -2.40885,-2.47395 -2.40885,-5.92447 0,-3.41796 2.40885,-5.89191 2.47395,-2.4414 5.92447,-2.4414 3.41796,0 5.89191,2.4414 2.4414,2.47395 2.4414,5.89191 0,3.45052 -2.4414,5.92447 -2.47395,2.40885 -5.89191,2.40885 z m 16.66662,0 q -3.45051,0 -5.92446,-2.40885 -2.40885,-2.47395 -2.40885,-5.92447 0,-3.41796 2.40885,-5.89191 2.47395,-2.4414 5.92446,-2.4414 3.41796,0 5.89191,2.4414 2.4414,2.47395 2.4414,5.89191 0,3.45052 -2.4414,5.92447 -2.47395,2.40885 -5.89191,2.40885 z m 49.99987,83.33312 q -3.45051,0 -5.92447,-2.4414 -2.40884,-2.47396 -2.40884,-5.89192 0,-3.45051 2.40884,-5.92446 2.47396,-2.40885 5.92447,-2.40885 3.41796,0 5.89191,2.40885 2.4414,2.47395 2.4414,5.92446 0,3.41796 -2.4414,5.89192 -2.47395,2.4414 -5.89191,2.4414 z m 16.66662,0 q -3.45051,0 -5.92446,-2.4414 -2.40885,-2.47396 -2.40885,-5.89192 0,-3.45051 2.40885,-5.92446 2.47395,-2.40885 5.92446,-2.40885 3.41796,0 5.89191,2.40885 2.4414,2.47395 2.4414,5.92446 0,3.41796 -2.4414,5.89192 -2.47395,2.4414 -5.89191,2.4414 z m 16.66663,0 q -3.45052,0 -5.92447,-2.4414 -2.40885,-2.47396 -2.40885,-5.89192 0,-3.45051 2.40885,-5.92446 2.47395,-2.40885 5.92447,-2.40885 3.41796,0 5.89191,2.40885 2.4414,2.47395 2.4414,5.92446 0,3.41796 -2.4414,5.89192 -2.47395,2.4414 -5.89191,2.4414 z m 16.66662,0 q -3.45051,0 -5.92446,-2.4414 -2.40885,-2.47396 -2.40885,-5.89192 0,-3.45051 2.40885,-5.92446 2.47395,-2.40885 5.92446,-2.40885 3.41796,0 5.89191,2.40885 2.4414,2.47395 2.4414,5.92446 0,3.41796 -2.4414,5.89192 -2.47395,2.4414 -5.89191,2.4414 z m 16.66662,-16.66663 q -3.45051,0 -5.92446,-2.40885 -2.40885,-2.47395 -2.40885,-5.92446 0,-3.41796 2.40885,-5.89191 2.47395,-2.4414 5.92446,-2.4414 3.41796,0 5.89192,2.4414 2.4414,2.47395 2.4414,5.89191 0,3.45051 -2.4414,5.92446 -2.47396,2.40885 -5.89192,2.40885 z m -49.99987,-16.66662 q -3.45051,0 -5.92446,-2.40885 -2.40885,-2.47395 -2.40885,-5.92446 0,-3.41796 2.40885,-5.89192 2.47395,-2.4414 5.92446,-2.4414 3.41796,0 5.89191,2.4414 2.4414,2.47396 2.4414,5.89192 0,3.45051 -2.4414,5.92446 -2.47395,2.40885 -5.89191,2.40885 z m 16.66663,0 q -3.45052,0 -5.92447,-2.40885 -2.40885,-2.47395 -2.40885,-5.92446 0,-3.41796 2.40885,-5.89192 2.47395,-2.4414 5.92447,-2.4414 3.41796,0 5.89191,2.4414 2.4414,2.47396 2.4414,5.89192 0,3.45051 -2.4414,5.92446 -2.47395,2.40885 -5.89191,2.40885 z m 16.66662,0 q -3.45051,0 -5.92446,-2.40885 -2.40885,-2.47395 -2.40885,-5.92446 0,-3.41796 2.40885,-5.89192 2.47395,-2.4414 5.92446,-2.4414 3.41796,0 5.89191,2.4414 2.4414,2.47396 2.4414,5.89192 0,3.45051 -2.4414,5.92446 -2.47395,2.40885 -5.89191,2.40885 z m 16.66662,0 q -3.45051,0 -5.92446,-2.40885 -2.40885,-2.47395 -2.40885,-5.92446 0,-3.41796 2.40885,-5.89192 2.47395,-2.4414 5.92446,-2.4414 3.41796,0 5.89192,2.4414 2.4414,2.47396 2.4414,5.89192 0,3.45051 -2.4414,5.92446 -2.47396,2.40885 -5.89192,2.40885 z M 340.0169,296.78685 q -3.45051,0 -5.92447,-2.40884 -2.40884,-2.47396 -2.40884,-5.92447 0,-3.41796 2.40884,-5.89191 2.47396,-2.4414 5.92447,-2.4414 3.41796,0 5.89191,2.4414 2.4414,2.47395 2.4414,5.89191 0,3.45051 -2.4414,5.92447 -2.47395,2.40884 -5.89191,2.40884 z m 66.66649,0 q -3.45051,0 -5.92446,-2.40884 -2.40885,-2.47396 -2.40885,-5.92447 0,-3.41796 2.40885,-5.89191 2.47395,-2.4414 5.92446,-2.4414 3.41796,0 5.89192,2.4414 2.4414,2.47395 2.4414,5.89191 0,3.45051 -2.4414,5.92447 -2.47396,2.40884 -5.89192,2.40884 z M 340.0169,280.12023 q -3.45051,0 -5.92447,-2.40885 -2.40884,-2.47395 -2.40884,-5.92446 0,-3.41796 2.40884,-5.89191 2.47396,-2.4414 5.92447,-2.4414 3.41796,0 5.89191,2.4414 2.4414,2.47395 2.4414,5.89191 0,3.45051 -2.4414,5.92446 -2.47395,2.40885 -5.89191,2.40885 z m 66.66649,0 q -3.45051,0 -5.92446,-2.40885 -2.40885,-2.47395 -2.40885,-5.92446 0,-3.41796 2.40885,-5.89191 2.47395,-2.4414 5.92446,-2.4414 3.41796,0 5.89192,2.4414 2.4414,2.47395 2.4414,5.89191 0,3.45051 -2.4414,5.92446 -2.47396,2.40885 -5.89192,2.40885 z m -49.99987,-16.66662 q -3.45051,0 -5.92446,-2.40885 -2.40885,-2.47395 -2.40885,-5.92447 0,-3.41796 2.40885,-5.89191 2.47395,-2.4414 5.92446,-2.4414 3.41796,0 5.89191,2.4414 2.4414,2.47395 2.4414,5.89191 0,3.45052 -2.4414,5.92447 -2.47395,2.40885 -5.89191,2.40885 z m 16.66663,0 q -3.45052,0 -5.92447,-2.40885 -2.40885,-2.47395 -2.40885,-5.92447 0,-3.41796 2.40885,-5.89191 2.47395,-2.4414 5.92447,-2.4414 3.41796,0 5.89191,2.4414 2.4414,2.47395 2.4414,5.89191 0,3.45052 -2.4414,5.92447 -2.47395,2.40885 -5.89191,2.40885 z m 16.66662,0 q -3.45051,0 -5.92446,-2.40885 -2.40885,-2.47395 -2.40885,-5.92447 0,-3.41796 2.40885,-5.89191 2.47395,-2.4414 5.92446,-2.4414 3.41796,0 5.89191,2.4414 2.4414,2.47395 2.4414,5.89191 0,3.45052 -2.4414,5.92447 -2.47395,2.40885 -5.89191,2.40885 z m 16.66662,0 q -3.45051,0 -5.92446,-2.40885 -2.40885,-2.47395 -2.40885,-5.92447 0,-3.41796 2.40885,-5.89191 2.47395,-2.4414 5.92446,-2.4414 3.41796,0 5.89192,2.4414 2.4414,2.47395 2.4414,5.89191 0,3.45052 -2.4414,5.92447 -2.47396,2.40885 -5.89192,2.40885 z m 33.33323,83.33312 q -3.45051,0 -5.92446,-2.4414 -2.40885,-2.47396 -2.40885,-5.89192 0,-3.45051 2.40885,-5.92446 2.47395,-2.40885 5.92446,-2.40885 3.41796,0 5.89192,2.40885 2.4414,2.47395 2.4414,5.92446 0,3.41796 -2.4414,5.89192 -2.47396,2.4414 -5.89192,2.4414 z m 16.66663,0 q -3.45051,0 -5.92447,-2.4414 -2.40884,-2.47396 -2.40884,-5.89192 0,-3.45051 2.40884,-5.92446 2.47396,-2.40885 5.92447,-2.40885 3.41796,0 5.89191,2.40885 2.4414,2.47395 2.4414,5.92446 0,3.41796 -2.4414,5.89192 -2.47395,2.4414 -5.89191,2.4414 z m 16.66662,0 q -3.45051,0 -5.92446,-2.4414 -2.40885,-2.47396 -2.40885,-5.89192 0,-3.45051 2.40885,-5.92446 2.47395,-2.40885 5.92446,-2.40885 3.41796,0 5.89191,2.40885 2.4414,2.47395 2.4414,5.92446 0,3.41796 -2.4414,5.89192 -2.47395,2.4414 -5.89191,2.4414 z m 16.66663,0 q -3.45052,0 -5.92447,-2.4414 -2.40885,-2.47396 -2.40885,-5.89192 0,-3.45051 2.40885,-5.92446 2.47395,-2.40885 5.92447,-2.40885 3.41796,0 5.89191,2.40885 2.4414,2.47395 2.4414,5.92446 0,3.41796 -2.4414,5.89192 -2.47395,2.4414 -5.89191,2.4414 z m 16.66662,-16.66663 q -3.45051,0 -5.92446,-2.40885 -2.40885,-2.47395 -2.40885,-5.92446 0,-3.41796 2.40885,-5.89191 2.47395,-2.4414 5.92446,-2.4414 3.41796,0 5.89191,2.4414 2.4414,2.47395 2.4414,5.89191 0,3.45051 -2.4414,5.92446 -2.47395,2.40885 -5.89191,2.40885 z m -49.99987,-16.66662 q -3.45051,0 -5.92447,-2.40885 -2.40884,-2.47395 -2.40884,-5.92446 0,-3.41796 2.40884,-5.89192 2.47396,-2.4414 5.92447,-2.4414 3.41796,0 5.89191,2.4414 2.4414,2.47396 2.4414,5.89192 0,3.45051 -2.4414,5.92446 -2.47395,2.40885 -5.89191,2.40885 z m 16.66662,0 q -3.45051,0 -5.92446,-2.40885 -2.40885,-2.47395 -2.40885,-5.92446 0,-3.41796 2.40885,-5.89192 2.47395,-2.4414 5.92446,-2.4414 3.41796,0 5.89191,2.4414 2.4414,2.47396 2.4414,5.89192 0,3.45051 -2.4414,5.92446 -2.47395,2.40885 -5.89191,2.40885 z m 16.66663,0 q -3.45052,0 -5.92447,-2.40885 -2.40885,-2.47395 -2.40885,-5.92446 0,-3.41796 2.40885,-5.89192 2.47395,-2.4414 5.92447,-2.4414 3.41796,0 5.89191,2.4414 2.4414,2.47396 2.4414,5.89192 0,3.45051 -2.4414,5.92446 -2.47395,2.40885 -5.89191,2.40885 z m 16.66662,0 q -3.45051,0 -5.92446,-2.40885 -2.40885,-2.47395 -2.40885,-5.92446 0,-3.41796 2.40885,-5.89192 2.47395,-2.4414 5.92446,-2.4414 3.41796,0 5.89191,2.4414 2.4414,2.47396 2.4414,5.89192 0,3.45051 -2.4414,5.92446 -2.47395,2.40885 -5.89191,2.40885 z m -66.6665,-16.66663 q -3.45051,0 -5.92446,-2.40884 -2.40885,-2.47396 -2.40885,-5.92447 0,-3.41796 2.40885,-5.89191 2.47395,-2.4414 5.92446,-2.4414 3.41796,0 5.89192,2.4414 2.4414,2.47395 2.4414,5.89191 0,3.45051 -2.4414,5.92447 -2.47396,2.40884 -5.89192,2.40884 z m 66.6665,0 q -3.45051,0 -5.92446,-2.40884 -2.40885,-2.47396 -2.40885,-5.92447 0,-3.41796 2.40885,-5.89191 2.47395,-2.4414 5.92446,-2.4414 3.41796,0 5.89191,2.4414 2.4414,2.47395 2.4414,5.89191 0,3.45051 -2.4414,5.92447 -2.47395,2.40884 -5.89191,2.40884 z m -66.6665,-16.66662 q -3.45051,0 -5.92446,-2.40885 -2.40885,-2.47395 -2.40885,-5.92446 0,-3.41796 2.40885,-5.89191 2.47395,-2.4414 5.92446,-2.4414 3.41796,0 5.89192,2.4414 2.4414,2.47395 2.4414,5.89191 0,3.45051 -2.4414,5.92446 -2.47396,2.40885 -5.89192,2.40885 z m 66.6665,0 q -3.45051,0 -5.92446,-2.40885 -2.40885,-2.47395 -2.40885,-5.92446 0,-3.41796 2.40885,-5.89191 2.47395,-2.4414 5.92446,-2.4414 3.41796,0 5.89191,2.4414 2.4414,2.47395 2.4414,5.89191 0,3.45051 -2.4414,5.92446 -2.47395,2.40885 -5.89191,2.40885 z m -66.6665,-16.66662 q -3.45051,0 -5.92446,-2.40885 -2.40885,-2.47395 -2.40885,-5.92447 0,-3.41796 2.40885,-5.89191 2.47395,-2.4414 5.92446,-2.4414 3.41796,0 5.89192,2.4414 2.4414,2.47395 2.4414,5.89191 0,3.45052 -2.4414,5.92447 -2.47396,2.40885 -5.89192,2.40885 z m 66.6665,0 q -3.45051,0 -5.92446,-2.40885 -2.40885,-2.47395 -2.40885,-5.92447 0,-3.41796 2.40885,-5.89191 2.47395,-2.4414 5.92446,-2.4414 3.41796,0 5.89191,2.4414 2.4414,2.47395 2.4414,5.89191 0,3.45052 -2.4414,5.92447 -2.47395,2.40885 -5.89191,2.40885 z"
         transform="matrix(0.26458333,0,0,0.26458333,-19.407257,-7.9693098)"
         fill="url(#menuIconEnabled)"/>
    </g>
    <g
       id="g2"
       transform="translate(2.2048674)">
      <ellipse
         style="stroke-width:0.260636"
         id="path1-7-9-3-8"
         cx="19.843224"
         cy="90.400833"
         rx="2.2048867"
         ry="2.2049999"
         fill="url(#menuIconEnabled)"/>
      <ellipse
         style="stroke-width:0.260636"
         id="path1-7-9-1-5"
         cx="37.482319"
         cy="90.400833"
         rx="2.2048867"
         ry="2.2049999"
         fill="url(#menuIconEnabled)"/>
      <ellipse
         style="stroke-width:0.260636"
         id="path1-7-9-1-9-0"
         cx="55.12141"
         cy="90.400833"
         rx="2.2048867"
         ry="2.2049999"
         fill="url(#menuIconEnabled)"/>
      <ellipse
         style="stroke-width:0.260636"
         id="path1-2-8"
         cx="121.26803"
         cy="28.660833"
         rx="2.2048867"
         ry="2.2049999"
         fill="url(#menuIconEnabled)"/>
      <ellipse
         style="stroke-width:0.260636"
         id="path1-7-1"
         cx="15.433451"
         cy="33.070831"
         rx="2.2048867"
         ry="2.2049999"
         fill="url(#menuIconEnabled)"/>
      <ellipse
         style="stroke-width:0.260636"
         id="path1-5-2-3"
         cx="85.98983"
         cy="28.660833"
         rx="2.2048867"
         ry="2.2049999"
         fill="url(#menuIconEnabled)"/>
      <ellipse
         style="stroke-width:0.260636"
         id="path1-5-9-4"
         cx="103.62894"
         cy="28.660833"
         rx="2.2048867"
         ry="2.2049999"
         fill="url(#menuIconEnabled)"/>
      <ellipse
         style="stroke-width:0.260636"
         id="path1-4-7"
         cx="33.072548"
         cy="33.070831"
         rx="2.2048867"
         ry="2.2049999"
         fill="url(#menuIconEnabled)"/>
      <ellipse
         style="stroke-width:0.260636"
         id="path1-5-5-8"
         cx="50.711639"
         cy="33.070831"
         rx="2.2048867"
         ry="2.2049999"
         fill="url(#menuIconEnabled)"/>
      <ellipse
         style="stroke-width:0.260636"
         id="path1-7-9-1-18"
         cx="15.433451"
         cy="41.890831"
         rx="2.2048867"
         ry="2.2049999"
         fill="url(#menuIconEnabled)"/>
      <ellipse
         style="stroke-width:0.260636"
         id="path1-7-9-1-9-59"
         cx="33.072548"
         cy="41.890831"
         rx="2.2048867"
         ry="2.2049999"
         fill="url(#menuIconEnabled)"/>
      <ellipse
         style="stroke-width:0.260636"
         id="path1-7-9-78-8"
         cx="6.6139035"
         cy="28.660833"
         rx="2.2048867"
         ry="2.2049999"
         fill="url(#menuIconEnabled)"/>
      <ellipse
         style="stroke-width:0.260636"
         id="path1-13"
         cx="59.531185"
         cy="28.660833"
         rx="2.2048867"
         ry="2.2049999"
         fill="url(#menuIconEnabled)"/>
      <ellipse
         style="stroke-width:0.260636"
         id="path1-5-21"
         cx="68.350731"
         cy="28.660833"
         rx="2.2048867"
         ry="2.2049999"
         fill="url(#menuIconEnabled)"/>
      <ellipse
         style="stroke-width:0.260636"
         id="path1-2-59"
         cx="24.252998"
         cy="33.070831"
         rx="2.2048867"
         ry="2.2049999"
         fill="url(#menuIconEnabled)"/>
      <ellipse
         style="stroke-width:0.260636"
         id="path1-7-91"
         cx="41.892094"
         cy="33.070831"
         rx="2.2048867"
         ry="2.2049999"
         fill="url(#menuIconEnabled)"/>
      <ellipse
         style="stroke-width:0.260636"
         id="path1-20-49"
         cx="77.17028"
         cy="28.660833"
         rx="2.2048867"
         ry="2.2049999"
         fill="url(#menuIconEnabled)"/>
      <ellipse
         style="stroke-width:0.260636"
         id="path1-5-2-10"
         cx="112.4485"
         cy="28.660833"
         rx="2.2048867"
         ry="2.2049999"
         fill="url(#menuIconEnabled)"/>
      <ellipse
         style="stroke-width:0.260636"
         id="path1-28-0"
         cx="94.80938"
         cy="28.660833"
         rx="2.2048867"
         ry="2.2049999"
         fill="url(#menuIconEnabled)"/>
      <ellipse
         style="stroke-width:0.260636"
         id="path1-5-9-48"
         cx="6.6139035"
         cy="33.070831"
         rx="2.2048867"
         ry="2.2049999"
         fill="url(#menuIconEnabled)"/>
      <ellipse
         style="stroke-width:0.260636"
         id="path1-7-9-04"
         cx="6.6139035"
         cy="41.890831"
         rx="2.2048867"
         ry="2.2049999"
         fill="url(#menuIconEnabled)"/>
      <ellipse
         style="stroke-width:0.260636"
         id="path1-7-9-3-5"
         cx="24.252998"
         cy="41.890831"
         rx="2.2048867"
         ry="2.2049999"
         fill="url(#menuIconEnabled)"/>
      <ellipse
         style="stroke-width:0.260636"
         id="path1-7-9-1-29"
         cx="41.892094"
         cy="41.890831"
         rx="2.2048867"
         ry="2.2049999"
         fill="url(#menuIconEnabled)"/>
      <ellipse
         style="stroke-width:0.260636"
         id="path1-7-9-1-9-02"
         cx="50.711639"
         cy="41.890831"
         rx="2.2048867"
         ry="2.2049999"
         fill="url(#menuIconEnabled)"/>
      <ellipse
         style="stroke-width:0.260636"
         id="path1-7-9-9-8"
         cx="50.711639"
         cy="28.660833"
         rx="2.2048867"
         ry="2.2049999"
         fill="url(#menuIconEnabled)"/>
      <ellipse
         style="stroke-width:0.260636"
         id="path1-7-9-5-38"
         cx="41.892094"
         cy="28.660833"
         rx="2.2048867"
         ry="2.2049999"
         fill="url(#menuIconEnabled)"/>
      <ellipse
         style="stroke-width:0.260636"
         id="path1-7-9-74-0"
         cx="33.072548"
         cy="28.660833"
         rx="2.2048867"
         ry="2.2049999"
         fill="url(#menuIconEnabled)"/>
      <ellipse
         style="stroke-width:0.260636"
         id="path1-7-9-78-4"
         cx="15.433451"
         cy="28.660833"
         rx="2.2048867"
         ry="2.2049999"
         fill="url(#menuIconEnabled)"/>
      <ellipse
         style="stroke-width:0.260636"
         id="path1-7-9-4-09"
         cx="24.252998"
         cy="28.660833"
         rx="2.2048867"
         ry="2.2049999"
         fill="url(#menuIconEnabled)"/>
      <ellipse
         style="stroke-width:0.260636"
         id="path1-5-90"
         cx="59.531185"
         cy="6.6108346"
         rx="2.2048867"
         ry="2.2049999"
         fill="url(#menuIconEnabled)"/>
      <ellipse
         style="stroke-width:0.260636"
         id="path1-7-73"
         cx="112.4485"
         cy="6.6108346"
         rx="2.2048867"
         ry="2.2049999"
         fill="url(#menuIconEnabled)"/>
      <ellipse
         style="stroke-width:0.260636"
         id="path1-7-7-65"
         cx="41.892094"
         cy="11.020834"
         rx="2.2048867"
         ry="2.2049999"
         fill="url(#menuIconEnabled)"/>
      <ellipse
         style="stroke-width:0.260636"
         id="path1-28-87"
         cx="77.17028"
         cy="6.6108346"
         rx="2.2048867"
         ry="2.2049999"
         fill="url(#menuIconEnabled)"/>
      <ellipse
         style="stroke-width:0.260636"
         id="path1-5-9-9"
         cx="94.80938"
         cy="6.6108346"
         rx="2.2048867"
         ry="2.2049999"
         fill="url(#menuIconEnabled)"/>
      <ellipse
         style="stroke-width:0.260636"
         id="path1-2-7-60"
         cx="24.252998"
         cy="11.020834"
         rx="2.2048867"
         ry="2.2049999"
         fill="url(#menuIconEnabled)"/>
      <ellipse
         style="stroke-width:0.260636"
         id="path1-5-3-8"
         cx="59.531185"
         cy="11.020834"
         rx="2.2048867"
         ry="2.2049999"
         fill="url(#menuIconEnabled)"/>
      <ellipse
         style="stroke-width:0.260636"
         id="path1-7-9-1-92"
         cx="112.4485"
         cy="11.020834"
         rx="2.2048867"
         ry="2.2049999"
         fill="url(#menuIconEnabled)"/>
      <ellipse
         style="stroke-width:0.260636"
         id="path1-7-9-01"
         cx="94.80938"
         cy="11.020834"
         rx="2.2048867"
         ry="2.2049999"
         fill="url(#menuIconEnabled)"/>
      <ellipse
         style="stroke-width:0.260636"
         id="path1-5-5-21"
         cx="6.6139035"
         cy="11.020834"
         rx="2.2048867"
         ry="2.2049999"
         fill="url(#menuIconEnabled)"/>
      <ellipse
         style="stroke-width:0.260636"
         id="path1-7-36-73"
         cx="77.17028"
         cy="11.020834"
         rx="2.2048867"
         ry="2.2049999"
         fill="url(#menuIconEnabled)"/>
      <ellipse
         style="stroke-width:0.260636"
         id="path1-7-9-9-6"
         cx="41.892094"
         cy="6.6108346"
         rx="2.2048867"
         ry="2.2049999"
         fill="url(#menuIconEnabled)"/>
      <ellipse
         style="stroke-width:0.260636"
         id="path1-7-9-74-40"
         cx="24.252998"
         cy="6.6108346"
         rx="2.2048867"
         ry="2.2049999"
         fill="url(#menuIconEnabled)"/>
      <ellipse
         style="stroke-width:0.260636"
         id="path1-7-9-78-6"
         cx="6.6139035"
         cy="6.6108346"
         rx="2.2048867"
         ry="2.2049999"
         fill="url(#menuIconEnabled)"/>
      <ellipse
         style="stroke-width:0.260636"
         id="path1-5-26"
         cx="33.072548"
         cy="19.840834"
         rx="2.2048867"
         ry="2.2049999"
         fill="url(#menuIconEnabled)"/>
      <ellipse
         style="stroke-width:0.260636"
         id="path1-7-64"
         cx="59.531185"
         cy="19.840834"
         rx="2.2048867"
         ry="2.2049999"
         fill="url(#menuIconEnabled)"/>
      <ellipse
         style="stroke-width:0.260636"
         id="path1-7-7-07"
         cx="94.80938"
         cy="19.840834"
         rx="2.2048867"
         ry="2.2049999"
         fill="url(#menuIconEnabled)"/>
      <ellipse
         style="stroke-width:0.260636"
         id="path1-28-01"
         cx="41.892094"
         cy="19.840834"
         rx="2.2048867"
         ry="2.2049999"
         fill="url(#menuIconEnabled)"/>
      <ellipse
         style="stroke-width:0.260636"
         id="path1-5-9-01"
         cx="50.711639"
         cy="19.840834"
         rx="2.2048867"
         ry="2.2049999"
         fill="url(#menuIconEnabled)"/>
      <ellipse
         style="stroke-width:0.260636"
         id="path1-2-7-37"
         cx="77.17028"
         cy="19.840834"
         rx="2.2048867"
         ry="2.2049999"
         fill="url(#menuIconEnabled)"/>
      <ellipse
         style="stroke-width:0.260636"
         id="path1-7-3-7"
         cx="103.62894"
         cy="19.840834"
         rx="2.2048867"
         ry="2.2049999"
         fill="url(#menuIconEnabled)"/>
      <ellipse
         style="stroke-width:0.260636"
         id="path1-9-26"
         cx="85.98983"
         cy="19.840834"
         rx="2.2048867"
         ry="2.2049999"
         fill="url(#menuIconEnabled)"/>
      <ellipse
         style="stroke-width:0.260636"
         id="path1-5-3-45"
         cx="112.4485"
         cy="19.840834"
         rx="2.2048867"
         ry="2.2049999"
         fill="url(#menuIconEnabled)"/>
      <ellipse
         style="stroke-width:0.260636"
         id="path1-2-1-20"
         cx="15.433451"
         cy="24.250834"
         rx="2.2048867"
         ry="2.2049999"
         fill="url(#menuIconEnabled)"/>
      <ellipse
         style="stroke-width:0.260636"
         id="path1-7-9-29"
         cx="24.252998"
         cy="24.250834"
         rx="2.2048867"
         ry="2.2049999"
         fill="url(#menuIconEnabled)"/>
      <ellipse
         style="stroke-width:0.260636"
         id="path1-5-5-99"
         cx="68.350731"
         cy="19.840834"
         rx="2.2048867"
         ry="2.2049999"
         fill="url(#menuIconEnabled)"/>
      <ellipse
         style="stroke-width:0.260636"
         id="path1-2-0-45"
         cx="121.26803"
         cy="19.840834"
         rx="2.2048867"
         ry="2.2049999"
         fill="url(#menuIconEnabled)"/>
      <ellipse
         style="stroke-width:0.260636"
         id="path1-7-36-1"
         cx="6.6139035"
         cy="24.250834"
         rx="2.2048867"
         ry="2.2049999"
         fill="url(#menuIconEnabled)"/>
      <ellipse
         style="stroke-width:0.260636"
         id="path1-7-9-3-0"
         cx="33.072548"
         cy="24.250834"
         rx="2.2048867"
         ry="2.2049999"
         fill="url(#menuIconEnabled)"/>
      <ellipse
         style="stroke-width:0.260636"
         id="path1-7-9-1-37"
         cx="41.892094"
         cy="24.250834"
         rx="2.2048867"
         ry="2.2049999"
         fill="url(#menuIconEnabled)"/>
      <ellipse
         style="stroke-width:0.260636"
         id="path1-7-9-1-9-88"
         cx="50.711639"
         cy="24.250834"
         rx="2.2048867"
         ry="2.2049999"
         fill="url(#menuIconEnabled)"/>
      <ellipse
         style="stroke-width:0.260636"
         id="path1-7-9-9-60"
         cx="24.252998"
         cy="19.840834"
         rx="2.2048867"
         ry="2.2049999"
         fill="url(#menuIconEnabled)"/>
      <ellipse
         style="stroke-width:0.260636"
         id="path1-7-9-74-7"
         cx="15.433451"
         cy="19.840834"
         rx="2.2048867"
         ry="2.2049999"
         fill="url(#menuIconEnabled)"/>
      <ellipse
         style="stroke-width:0.260636"
         id="path1-7-9-78-60"
         cx="6.6139035"
         cy="19.840834"
         rx="2.2048867"
         ry="2.2049999"
         fill="url(#menuIconEnabled)"/>
      <ellipse
         style="stroke-width:0.260636"
         id="path1-5-90-2"
         cx="59.531185"
         cy="24.250834"
         rx="2.2048867"
         ry="2.2049999"
         fill="url(#menuIconEnabled)"/>
      <ellipse
         style="stroke-width:0.260636"
         id="path1-7-73-1"
         cx="112.4485"
         cy="24.250834"
         rx="2.2048867"
         ry="2.2049999"
         fill="url(#menuIconEnabled)"/>
      <ellipse
         style="stroke-width:0.260636"
         id="path1-5-2-65-2"
         cx="85.98983"
         cy="24.250834"
         rx="2.2048867"
         ry="2.2049999"
         fill="url(#menuIconEnabled)"/>
      <ellipse
         style="stroke-width:0.260636"
         id="path1-28-87-2"
         cx="77.17028"
         cy="24.250834"
         rx="2.2048867"
         ry="2.2049999"
         fill="url(#menuIconEnabled)"/>
      <ellipse
         style="stroke-width:0.260636"
         id="path1-5-9-9-9"
         cx="94.80938"
         cy="24.250834"
         rx="2.2048867"
         ry="2.2049999"
         fill="url(#menuIconEnabled)"/>
      <ellipse
         style="stroke-width:0.260636"
         id="path1-5-3-8-5"
         cx="59.531185"
         cy="33.070831"
         rx="2.2048867"
         ry="2.2049999"
         fill="url(#menuIconEnabled)"/>
      <ellipse
         style="stroke-width:0.260636"
         id="path1-7-9-3-3-2"
         cx="103.62894"
         cy="33.070831"
         rx="2.2048867"
         ry="2.2049999"
         fill="url(#menuIconEnabled)"/>
      <ellipse
         style="stroke-width:0.260636"
         id="path1-7-9-1-92-7"
         cx="112.4485"
         cy="33.070831"
         rx="2.2048867"
         ry="2.2049999"
         fill="url(#menuIconEnabled)"/>
      <ellipse
         style="stroke-width:0.260636"
         id="path1-2-94-1"
         cx="103.62894"
         cy="24.250834"
         rx="2.2048867"
         ry="2.2049999"
         fill="url(#menuIconEnabled)"/>
      <ellipse
         style="stroke-width:0.260636"
         id="path1-20-9-2"
         cx="68.350731"
         cy="24.250834"
         rx="2.2048867"
         ry="2.2049999"
         fill="url(#menuIconEnabled)"/>
      <ellipse
         style="stroke-width:0.260636"
         id="path1-2-1-2-6"
         cx="85.98983"
         cy="33.070831"
         rx="2.2048867"
         ry="2.2049999"
         fill="url(#menuIconEnabled)"/>
      <ellipse
         style="stroke-width:0.260636"
         id="path1-7-9-01-8"
         cx="94.80938"
         cy="33.070831"
         rx="2.2048867"
         ry="2.2049999"
         fill="url(#menuIconEnabled)"/>
      <ellipse
         style="stroke-width:0.260636"
         id="path1-4-96-7"
         cx="121.26803"
         cy="24.250834"
         rx="2.2048867"
         ry="2.2049999"
         fill="url(#menuIconEnabled)"/>
      <ellipse
         style="stroke-width:0.260636"
         id="path1-2-0-20-9"
         cx="68.350731"
         cy="33.070831"
         rx="2.2048867"
         ry="2.2049999"
         fill="url(#menuIconEnabled)"/>
      <ellipse
         style="stroke-width:0.260636"
         id="path1-7-36-73-2"
         cx="77.17028"
         cy="33.070831"
         rx="2.2048867"
         ry="2.2049999"
         fill="url(#menuIconEnabled)"/>
      <ellipse
         style="stroke-width:0.260636"
         id="path1-7-9-1-9-05-5"
         cx="121.26803"
         cy="33.070831"
         rx="2.2048867"
         ry="2.2049999"
         fill="url(#menuIconEnabled)"/>
      <ellipse
         style="stroke-width:0.260636"
         id="path1-5-26-0"
         cx="11.023676"
         cy="41.890831"
         rx="2.2048867"
         ry="2.2049999"
         fill="url(#menuIconEnabled)"/>
      <ellipse
         style="stroke-width:0.260636"
         id="path1-2-06-6"
         cx="55.12141"
         cy="41.890831"
         rx="2.2048867"
         ry="2.2049999"
         fill="url(#menuIconEnabled)"/>
      <ellipse
         style="stroke-width:0.260636"
         id="path1-7-64-4"
         cx="59.531185"
         cy="41.890831"
         rx="2.2048867"
         ry="2.2049999"
         fill="url(#menuIconEnabled)"/>
      <ellipse
         style="stroke-width:0.260636"
         id="path1-20-62-0"
         cx="19.843224"
         cy="41.890831"
         rx="2.2048867"
         ry="2.2049999"
         fill="url(#menuIconEnabled)"/>
      <ellipse
         style="stroke-width:0.260636"
         id="path1-5-2-8-9"
         cx="37.482319"
         cy="41.890831"
         rx="2.2048867"
         ry="2.2049999"
         fill="url(#menuIconEnabled)"/>
      <ellipse
         style="stroke-width:0.260636"
         id="path1-2-3-96-4"
         cx="72.760506"
         cy="41.890831"
         rx="2.2048867"
         ry="2.2049999"
         fill="url(#menuIconEnabled)"/>
      <ellipse
         style="stroke-width:0.260636"
         id="path1-7-7-07-5"
         cx="85.98983"
         cy="41.890831"
         rx="2.2048867"
         ry="2.2049999"
         fill="url(#menuIconEnabled)"/>
      <ellipse
         style="stroke-width:0.260636"
         id="path1-28-01-4"
         cx="28.662771"
         cy="41.890831"
         rx="2.2048867"
         ry="2.2049999"
         fill="url(#menuIconEnabled)"/>
      <ellipse
         style="stroke-width:0.260636"
         id="path1-5-9-01-6"
         cx="46.301865"
         cy="41.890831"
         rx="2.2048867"
         ry="2.2049999"
         fill="url(#menuIconEnabled)"/>
      <ellipse
         style="stroke-width:0.260636"
         id="path1-2-7-37-6"
         cx="77.17028"
         cy="41.890831"
         rx="2.2048867"
         ry="2.2049999"
         fill="url(#menuIconEnabled)"/>
      <ellipse
         style="stroke-width:0.260636"
         id="path1-7-3-7-3"
         cx="90.399605"
         cy="41.890831"
         rx="2.2048867"
         ry="2.2049999"
         fill="url(#menuIconEnabled)"/>
      <ellipse
         style="stroke-width:0.260636"
         id="path1-9-26-9"
         cx="81.580055"
         cy="41.890831"
         rx="2.2048867"
         ry="2.2049999"
         fill="url(#menuIconEnabled)"/>
      <ellipse
         style="stroke-width:0.260636"
         id="path1-5-3-45-9"
         cx="94.80938"
         cy="41.890831"
         rx="2.2048867"
         ry="2.2049999"
         fill="url(#menuIconEnabled)"/>
      <ellipse
         style="stroke-width:0.260636"
         id="path1-2-1-20-5"
         cx="108.03871"
         cy="41.890831"
         rx="2.2048867"
         ry="2.2049999"
         fill="url(#menuIconEnabled)"/>
      <ellipse
         style="stroke-width:0.260636"
         id="path1-7-9-29-2"
         cx="112.4485"
         cy="41.890831"
         rx="2.2048867"
         ry="2.2049999"
         fill="url(#menuIconEnabled)"/>
      <ellipse
         style="stroke-width:0.260636"
         id="path1-4-0-1"
         cx="63.940956"
         cy="41.890831"
         rx="2.2048867"
         ry="2.2049999"
         fill="url(#menuIconEnabled)"/>
      <ellipse
         style="stroke-width:0.260636"
         id="path1-5-5-99-3"
         cx="68.350731"
         cy="41.890831"
         rx="2.2048867"
         ry="2.2049999"
         fill="url(#menuIconEnabled)"/>
      <ellipse
         style="stroke-width:0.260636"
         id="path1-2-0-45-0"
         cx="99.219154"
         cy="41.890831"
         rx="2.2048867"
         ry="2.2049999"
         fill="url(#menuIconEnabled)"/>
      <ellipse
         style="stroke-width:0.260636"
         id="path1-7-36-1-9"
         cx="103.62894"
         cy="41.890831"
         rx="2.2048867"
         ry="2.2049999"
         fill="url(#menuIconEnabled)"/>
      <ellipse
         style="stroke-width:0.260636"
         id="path1-7-9-3-0-9"
         cx="116.85827"
         cy="41.890831"
         rx="2.2048867"
         ry="2.2049999"
         fill="url(#menuIconEnabled)"/>
      <ellipse
         style="stroke-width:0.260636"
         id="path1-7-9-1-37-1"
         cx="121.26803"
         cy="41.890831"
         rx="2.2048867"
         ry="2.2049999"
         fill="url(#menuIconEnabled)"/>
      <ellipse
         style="stroke-width:0.260636"
         id="path1-2-1-76"
         cx="46.301865"
         cy="90.400833"
         rx="2.2048867"
         ry="2.2049999"
         fill="url(#menuIconEnabled)"/>
      <ellipse
         style="stroke-width:0.260636"
         id="path1-7-9-57"
         cx="63.940956"
         cy="90.400833"
         rx="2.2048867"
         ry="2.2049999"
         fill="url(#menuIconEnabled)"/>
      <ellipse
         style="stroke-width:0.260636"
         id="path1-2-0-3"
         cx="11.023676"
         cy="90.400833"
         rx="2.2048867"
         ry="2.2049999"
         fill="url(#menuIconEnabled)"/>
      <ellipse
         style="stroke-width:0.260636"
         id="path1-7-36-85"
         cx="28.662771"
         cy="90.400833"
         rx="2.2048867"
         ry="2.2049999"
         fill="url(#menuIconEnabled)"/>
      <ellipse
         style="stroke-width:0.260636"
         id="path1-7-9-3-10"
         cx="72.760506"
         cy="90.400833"
         rx="2.2048867"
         ry="2.2049999"
         fill="url(#menuIconEnabled)"/>
      <ellipse
         style="stroke-width:0.260636"
         id="path1-7-9-1-87"
         cx="81.580055"
         cy="90.400833"
         rx="2.2048867"
         ry="2.2049999"
         fill="url(#menuIconEnabled)"/>
      <ellipse
         style="stroke-width:0.260636"
         id="path1-7-9-1-9-63"
         cx="90.399605"
         cy="90.400833"
         rx="2.2048867"
         ry="2.2049999"
         fill="url(#menuIconEnabled)"/>
      <ellipse
         style="stroke-width:0.260636"
         id="path1-2-1-8-4"
         cx="50.711639"
         cy="90.400833"
         rx="2.2048867"
         ry="2.2049999"
         fill="url(#menuIconEnabled)"/>
      <ellipse
         style="stroke-width:0.260636"
         id="path1-7-9-12-8"
         cx="68.350731"
         cy="90.400833"
         rx="2.2048867"
         ry="2.2049999"
         fill="url(#menuIconEnabled)"/>
      <ellipse
         style="stroke-width:0.260636"
         id="path1-2-0-9-8"
         cx="15.433451"
         cy="90.400833"
         rx="2.2048867"
         ry="2.2049999"
         fill="url(#menuIconEnabled)"/>
      <ellipse
         style="stroke-width:0.260636"
         id="path1-7-36-08-5"
         cx="33.072548"
         cy="90.400833"
         rx="2.2048867"
         ry="2.2049999"
         fill="url(#menuIconEnabled)"/>
      <ellipse
         style="stroke-width:0.260636"
         id="path1-7-9-3-8-2"
         cx="85.98983"
         cy="90.400833"
         rx="2.2048867"
         ry="2.2049999"
         fill="url(#menuIconEnabled)"/>
      <ellipse
         style="stroke-width:0.260636"
         id="path1-7-9-1-5-1"
         cx="99.219154"
         cy="90.400833"
         rx="2.2048867"
         ry="2.2049999"
         fill="url(#menuIconEnabled)"/>
      <ellipse
         style="stroke-width:0.260636"
         id="path1-7-9-1-9-0-9"
         cx="108.03871"
         cy="90.400833"
         rx="2.2048867"
         ry="2.2049999"
         fill="url(#menuIconEnabled)"/>
      <ellipse
         style="stroke-width:0.260636"
         id="path1-7-7-44-8"
         cx="24.252998"
         cy="90.400833"
         rx="2.2048867"
         ry="2.2049999"
         fill="url(#menuIconEnabled)"/>
      <ellipse
         style="stroke-width:0.260636"
         id="path1-7-3-58-5"
         cx="41.892094"
         cy="90.400833"
         rx="2.2048867"
         ry="2.2049999"
         fill="url(#menuIconEnabled)"/>
      <ellipse
         style="stroke-width:0.260636"
         id="path1-9-90-8"
         cx="6.6139035"
         cy="90.400833"
         rx="2.2048867"
         ry="2.2049999"
         fill="url(#menuIconEnabled)"/>
      <ellipse
         style="stroke-width:0.260636"
         id="path1-5-3-24-5"
         cx="59.531185"
         cy="90.400833"
         rx="2.2048867"
         ry="2.2049999"
         fill="url(#menuIconEnabled)"/>
      <ellipse
         style="stroke-width:0.260636"
         id="path1-2-1-76-5"
         cx="103.62894"
         cy="90.400833"
         rx="2.2048867"
         ry="2.2049999"
         fill="url(#menuIconEnabled)"/>
      <ellipse
         style="stroke-width:0.260636"
         id="path1-7-9-57-0"
         cx="112.4485"
         cy="90.400833"
         rx="2.2048867"
         ry="2.2049999"
         fill="url(#menuIconEnabled)"/>
      <ellipse
         style="stroke-width:0.260636"
         id="path1-2-0-3-8"
         cx="77.17028"
         cy="90.400833"
         rx="2.2048867"
         ry="2.2049999"
         fill="url(#menuIconEnabled)"/>
      <ellipse
         style="stroke-width:0.260636"
         id="path1-7-36-85-2"
         cx="94.80938"
         cy="90.400833"
         rx="2.2048867"
         ry="2.2049999"
         fill="url(#menuIconEnabled)"/>
      <ellipse
         style="stroke-width:0.260636"
         id="path1-7-9-3-10-3"
         cx="116.85827"
         cy="90.400833"
         rx="2.2048867"
         ry="2.2049999"
         fill="url(#menuIconEnabled)"/>
      <ellipse
         style="stroke-width:0.260636"
         id="path1-7-9-1-87-0"
         cx="121.26803"
         cy="90.400833"
         rx="2.2048867"
         ry="2.2049999"
         fill="url(#menuIconEnabled)"/>
      <ellipse
         style="stroke-width:0.260636"
         id="path1-5-90-5"
         cx="59.531185"
         cy="15.430833"
         rx="2.2048867"
         ry="2.2049999"
         fill="url(#menuIconEnabled)"/>
      <ellipse
         style="stroke-width:0.260636"
         id="path1-7-73-3"
         cx="112.4485"
         cy="15.430833"
         rx="2.2048867"
         ry="2.2049999"
         fill="url(#menuIconEnabled)"/>
      <ellipse
         style="stroke-width:0.260636"
         id="path1-5-2-65-6"
         cx="85.98983"
         cy="15.430833"
         rx="2.2048867"
         ry="2.2049999"
         fill="url(#menuIconEnabled)"/>
      <ellipse
         style="stroke-width:0.260636"
         id="path1-28-87-0"
         cx="77.17028"
         cy="15.430833"
         rx="2.2048867"
         ry="2.2049999"
         fill="url(#menuIconEnabled)"/>
      <ellipse
         style="stroke-width:0.260636"
         id="path1-5-9-9-3"
         cx="94.80938"
         cy="15.430833"
         rx="2.2048867"
         ry="2.2049999"
         fill="url(#menuIconEnabled)"/>
      <ellipse
         style="stroke-width:0.260636"
         id="path1-57-5"
         cx="50.711639"
         cy="15.430833"
         rx="2.2048867"
         ry="2.2049999"
         fill="url(#menuIconEnabled)"/>
      <ellipse
         style="stroke-width:0.260636"
         id="path1-2-94-10"
         cx="103.62894"
         cy="15.430833"
         rx="2.2048867"
         ry="2.2049999"
         fill="url(#menuIconEnabled)"/>
      <ellipse
         style="stroke-width:0.260636"
         id="path1-20-9-0"
         cx="68.350731"
         cy="15.430833"
         rx="2.2048867"
         ry="2.2049999"
         fill="url(#menuIconEnabled)"/>
      <ellipse
         style="stroke-width:0.260636"
         id="path1-4-96-4"
         cx="121.26803"
         cy="15.430833"
         rx="2.2048867"
         ry="2.2049999"
         fill="url(#menuIconEnabled)"/>
      <ellipse
         style="stroke-width:0.260636"
         id="path1-7-9-9-6-2"
         cx="41.892094"
         cy="15.430833"
         rx="2.2048867"
         ry="2.2049999"
         fill="url(#menuIconEnabled)"/>
      <ellipse
         style="stroke-width:0.260636"
         id="path1-7-9-5-77-4"
         cx="33.072548"
         cy="15.430833"
         rx="2.2048867"
         ry="2.2049999"
         fill="url(#menuIconEnabled)"/>
      <ellipse
         style="stroke-width:0.260636"
         id="path1-7-9-74-40-9"
         cx="24.252998"
         cy="15.430833"
         rx="2.2048867"
         ry="2.2049999"
         fill="url(#menuIconEnabled)"/>
      <ellipse
         style="stroke-width:0.260636"
         id="path1-7-9-78-6-9"
         cx="6.6139035"
         cy="15.430833"
         rx="2.2048867"
         ry="2.2049999"
         fill="url(#menuIconEnabled)"/>
      <ellipse
         style="stroke-width:0.260636"
         id="path1-7-9-4-4-94"
         cx="15.433451"
         cy="15.430833"
         rx="2.2048867"
         ry="2.2049999"
         fill="url(#menuIconEnabled)"/>
    </g>
  </g>
</svg>
